<svg width="40" height="40" viewBox="0 0 40 40" fill="none" xmlns="http://www.w3.org/2000/svg">
<path d="M33.3333 13.3333H23.9799L25.8516 7.72159C26.1883 6.70825 26.0183 5.58492 25.3933 4.71825C24.7683 3.85159 23.7549 3.33325 22.6866 3.33325H19.9999C19.5049 3.33325 19.0366 3.55325 18.7183 3.93325L10.8849 13.3333H6.66659C4.82825 13.3333 3.33325 14.8283 3.33325 16.6666V31.6666C3.33325 33.5049 4.82825 34.9999 6.66659 34.9999H28.8449C29.5231 34.9977 30.1846 34.7897 30.742 34.4034C31.2993 34.0171 31.7264 33.4708 31.9666 32.8366L36.5616 20.5849C36.6314 20.3978 36.6669 20.1996 36.6666 19.9999V16.6666C36.6666 14.8283 35.1716 13.3333 33.3333 13.3333ZM6.66659 16.6666H9.99992V31.6666H6.66659V16.6666ZM33.3333 19.6983L28.8449 31.6666H13.3333V15.6033L20.7799 6.66659H22.6899L20.0866 14.4716C20.0021 14.7221 19.9785 14.9892 20.0178 15.2506C20.0571 15.5121 20.1582 15.7604 20.3127 15.975C20.4672 16.1896 20.6705 16.3642 20.906 16.4845C21.1415 16.6048 21.4022 16.6672 21.6666 16.6666H33.3333V19.6983Z" fill="#F6A51A"/>
</svg>
