<svg width="40" height="40" viewBox="0 0 40 40" fill="none" xmlns="http://www.w3.org/2000/svg">
<g clip-path="url(#clip0)">
<path d="M7.03149 24.3752H16.875C17.3065 24.3752 17.6563 24.0254 17.6563 23.5939C17.6563 23.1624 17.3065 22.8127 16.875 22.8127H7.03149C6.60001 22.8127 6.25024 23.1624 6.25024 23.5939C6.25024 24.0254 6.60001 24.3752 7.03149 24.3752Z" fill="#F6A51A"/>
<path d="M7.03149 27.5004H16.875C17.3065 27.5004 17.6563 27.1506 17.6563 26.7191C17.6563 26.2876 17.3065 25.9379 16.875 25.9379H7.03149C6.60001 25.9379 6.25024 26.2876 6.25024 26.7191C6.25024 27.1506 6.60001 27.5004 7.03149 27.5004Z" fill="#F6A51A"/>
<path d="M32.9685 22.8127H23.125C22.6935 22.8127 22.3438 23.1624 22.3438 23.5939C22.3438 24.0254 22.6935 24.3752 23.125 24.3752H32.9685C33.4 24.3752 33.7498 24.0254 33.7498 23.5939C33.7498 23.1624 33.4 22.8127 32.9685 22.8127Z" fill="#F6A51A"/>
<path d="M32.9685 25.9379H23.125C22.6935 25.9379 22.3438 26.2876 22.3438 26.7191C22.3438 27.1506 22.6935 27.5004 23.125 27.5004H32.9685C33.4 27.5004 33.7498 27.1506 33.7498 26.7191C33.7498 26.2876 33.4 25.9379 32.9685 25.9379Z" fill="#F6A51A"/>
<path d="M28.0469 18.125H32.9687C33.4002 18.125 33.7499 17.7752 33.7499 17.3438C33.7499 16.9123 33.4002 16.5625 32.9687 16.5625H28.0469C27.6154 16.5625 27.2656 16.9123 27.2656 17.3438C27.2656 17.7752 27.6154 18.125 28.0469 18.125Z" fill="#F6A51A"/>
<path d="M32.9685 19.6876H23.125C22.6935 19.6876 22.3438 20.0374 22.3438 20.4689C22.3438 20.9004 22.6935 21.2501 23.125 21.2501H32.9685C33.4 21.2501 33.7498 20.9004 33.7498 20.4689C33.7498 20.0374 33.4 19.6876 32.9685 19.6876Z" fill="#F6A51A"/>
<path d="M30.5076 15.0001H32.9684C33.3999 15.0001 33.7497 14.6503 33.7497 14.2188C33.7497 13.7873 33.3999 13.4376 32.9684 13.4376H30.5076C30.0761 13.4376 29.7263 13.7873 29.7263 14.2188C29.7263 14.6503 30.0761 15.0001 30.5076 15.0001Z" fill="#F6A51A"/>
<path d="M16.875 30.6254C17.3065 30.6254 17.6563 30.2756 17.6563 29.8441C17.6563 29.4126 17.3065 29.0629 16.875 29.0629H7.03149C6.60001 29.0629 6.25024 29.4126 6.25024 29.8441C6.25024 30.2756 6.60001 30.6254 7.03149 30.6254H16.875Z" fill="#F6A51A"/>
<path d="M32.9685 29.0629H23.125C22.6935 29.0629 22.3438 29.4126 22.3438 29.8441C22.3438 30.2756 22.6935 30.6254 23.125 30.6254H32.9685C33.4 30.6254 33.7498 30.2756 33.7498 29.8441C33.7498 29.4126 33.4 29.0629 32.9685 29.0629Z" fill="#F6A51A"/>
<path d="M7.0315 15H9.49244C9.92392 15 10.2737 14.6502 10.2737 14.2188C10.2737 13.7873 9.92392 13.4375 9.49244 13.4375H7.0315C6.60001 13.4375 6.25024 13.7873 6.25024 14.2188C6.25024 14.6502 6.60001 15 7.0315 15Z" fill="#F6A51A"/>
<path d="M7.0315 18.1251H11.9533C12.3848 18.1251 12.7345 17.7754 12.7345 17.3439C12.7345 16.9124 12.3848 16.5626 11.9533 16.5626H7.0315C6.60001 16.5626 6.25024 16.9124 6.25024 17.3439C6.25024 17.7754 6.60001 18.1251 7.0315 18.1251Z" fill="#F6A51A"/>
<path d="M7.03149 21.2503H16.875C17.3065 21.2503 17.6563 20.9005 17.6563 20.469C17.6563 20.0375 17.3065 19.6877 16.875 19.6877H7.03149C6.60001 19.6877 6.25024 20.0375 6.25024 20.469C6.25024 20.9005 6.60001 21.2503 7.03149 21.2503Z" fill="#F6A51A"/>
<path d="M38.4375 13.4368H36.8749V11.8741C36.8749 11.0126 36.174 10.3116 35.3124 10.3116H28.4209C28.5341 9.7561 28.5937 9.18125 28.5937 8.59274C28.5937 3.85416 24.7386 -0.000976562 20 -0.000976562C15.2614 -0.000976562 11.4063 3.85416 11.4063 8.59274C11.4063 9.18125 11.4659 9.7561 11.5791 10.3116H4.68764C3.82608 10.3116 3.12514 11.0126 3.12514 11.8741V13.4368H1.56249C0.700935 13.4368 0 14.1377 0 14.9993V38.4366C0 39.2982 0.700935 39.9991 1.56249 39.9991H38.4375C39.2991 39.9991 40 39.2982 40 38.4366V14.9993C40 14.1377 39.2991 13.4368 38.4375 13.4368ZM14.307 4.47158C14.9658 4.79143 15.6604 5.05369 16.3817 5.25439C16.236 6.06142 16.1431 6.92228 16.1091 7.81157H13.0124C13.1499 6.57345 13.6102 5.43142 14.307 4.47158ZM26.9876 7.81157H23.8911C23.8569 6.92228 23.7641 6.06134 23.6184 5.25439C24.3397 5.05369 25.0344 4.79135 25.6932 4.47158C26.3899 5.43142 26.8501 6.57345 26.9876 7.81157ZM25.6931 12.7141C25.0343 12.3942 24.3397 12.1319 23.6183 11.9312C23.764 11.1241 23.8569 10.2633 23.891 9.37399H26.9875C26.8501 10.6122 26.3899 11.7542 25.6931 12.7141ZM18.5175 13.8225C18.4297 13.603 18.3489 13.3707 18.2738 13.1291C18.8387 13.0487 19.4157 13.0069 20 13.0069C20.5843 13.0069 21.1614 13.0487 21.7262 13.1291C21.6512 13.3706 21.5704 13.603 21.4826 13.8225C21.0448 14.9169 20.4629 15.624 20 15.624C19.5372 15.624 18.9552 14.9169 18.5175 13.8225ZM22.3274 9.37406C22.2954 10.1524 22.2151 10.9025 22.091 11.6037C21.4072 11.4987 20.7078 11.4444 20.0001 11.4444C19.2923 11.4444 18.593 11.4987 17.9091 11.6037C17.7851 10.9025 17.7048 10.1524 17.6727 9.37406H22.3274ZM17.6727 7.81157C17.7047 7.03321 17.785 6.28306 17.9091 5.58181C18.5929 5.68689 19.2923 5.74111 20 5.74111C20.7077 5.74111 21.4071 5.68689 22.0909 5.58181C22.215 6.28306 22.2953 7.03321 22.3273 7.81157H17.6727ZM22.9333 14.4028C23.053 14.1038 23.1621 13.7866 23.2608 13.4544C23.7144 13.5834 24.1553 13.7399 24.5806 13.9229C23.9972 14.4249 23.3309 14.8329 22.6052 15.1234C22.7208 14.8999 22.8305 14.6599 22.9333 14.4028ZM23.2608 3.73127C23.1621 3.39901 23.053 3.08182 22.9333 2.78284C22.8305 2.52565 22.7208 2.28566 22.6052 2.06222C23.3309 2.35276 23.9972 2.76073 24.5806 3.26276C24.1553 3.44573 23.7144 3.60221 23.2608 3.73127ZM21.4826 3.36315C21.5704 3.5826 21.6512 3.81495 21.7262 4.05651C21.1614 4.13698 20.5843 4.17869 20 4.17869C19.4157 4.17869 18.8387 4.13698 18.2738 4.05651C18.3489 3.81502 18.4297 3.5826 18.5175 3.36315C18.9552 2.2687 19.5372 1.5616 20.0001 1.5616C20.463 1.5616 21.0448 2.2687 21.4826 3.36315ZM17.0667 2.78284C16.9471 3.08182 16.838 3.39901 16.7393 3.73127C16.2856 3.60221 15.8448 3.44573 15.4195 3.26276C16.0028 2.76073 16.6692 2.35269 17.3949 2.06222C17.2793 2.28573 17.1696 2.52565 17.0667 2.78284ZM13.0124 9.37406H16.109C16.1431 10.2634 16.236 11.1242 16.3817 11.9312C15.6603 12.1319 14.9657 12.3943 14.3069 12.7141C13.6102 11.7541 13.1499 10.6122 13.0124 9.37406ZM16.7393 13.4544C16.838 13.7866 16.9472 14.1038 17.0667 14.4028C17.1696 14.6599 17.2793 14.8999 17.3949 15.1234C16.6692 14.8329 16.0028 14.4249 15.4195 13.9229C15.8448 13.7399 16.2856 13.5833 16.7393 13.4544ZM20.7812 35.3115C20.7812 34.3637 21.5523 33.5927 22.5 33.5927H35.3124V35.1553H22.5C21.8702 35.1553 21.2815 35.3339 20.7812 35.6428V35.3115ZM35.3124 11.8741V32.0302H22.5C21.8702 32.0302 21.2815 32.2088 20.7812 32.5177V17.1506C24.0198 16.8573 26.7453 14.7601 27.9421 11.8742L35.3124 11.8741ZM4.68764 11.8742H12.058C13.2548 14.7601 15.9803 16.8573 19.2188 17.1506V32.5177C18.7185 32.2089 18.1298 32.0302 17.5 32.0302H10.9375C10.5061 32.0302 10.1563 32.38 10.1563 32.8115C10.1563 33.243 10.5061 33.5927 10.9375 33.5927H17.5C18.4477 33.5927 19.2188 34.3637 19.2188 35.3115V35.6429C18.7185 35.334 18.1299 35.1554 17.5 35.1554H4.68756V11.8742H4.68764ZM1.56249 14.9993H3.12507V35.1554C3.12507 36.0169 3.826 36.7179 4.68756 36.7179H17.5C18.4477 36.7179 19.2188 37.4889 19.2188 38.4366H1.56249V14.9993ZM20.7812 38.4366C20.7812 37.4889 21.5523 36.7179 22.5 36.7179H35.3124C36.174 36.7179 36.8749 36.0169 36.8749 35.1554V14.9993H38.4375V38.4366H20.7812Z" fill="#F6A51A"/>
<path d="M7.42211 32.031H7.42156C6.99008 32.031 6.64062 32.3808 6.64062 32.8123C6.64062 33.2437 6.99062 33.5935 7.42211 33.5935C7.85359 33.5935 8.20336 33.2437 8.20336 32.8123C8.20336 32.3808 7.85359 32.031 7.42211 32.031Z" fill="#F6A51A"/>
</g>
<defs>
<clipPath id="clip0">
<rect width="40" height="40" fill="white"/>
</clipPath>
</defs>
</svg>
