<svg width="40" height="40" viewBox="0 0 40 40" fill="none" xmlns="http://www.w3.org/2000/svg">
<g clip-path="url(#clip0)">
<path d="M11.1438 23.0266C10.6133 22.8687 10.25 22.3812 10.25 21.8281V13.6195C10.25 12.5104 11.5979 11.9485 12.3836 12.7359L13.0672 13.4195C14.027 14.378 15.6435 13.3287 15.1133 12.0523C14.9773 11.7233 15.3942 12.198 8.66641 5.47107L2.49219 11.6453C2.25547 11.882 2.125 12.1969 2.125 12.532C2.125 13.6479 3.47172 14.2154 4.26562 13.4195C4.91516 12.77 5.18719 12.3695 5.83359 12.3695C6.5168 12.3695 7.08359 12.924 7.08359 13.6195V21.8281C7.08359 22.3812 6.72031 22.8687 6.18984 23.0266C2.54531 24.1109 0 27.5273 0 31.3336C0 36.1125 3.8875 40 8.66641 40C13.4453 40 17.3336 36.1125 17.3336 31.3336C17.3336 27.5273 14.7883 24.1109 11.1438 23.0266ZM8.66641 36.8336C5.63359 36.8336 3.16641 34.3664 3.16641 31.3336C3.16641 28.3008 5.63359 25.8336 8.66641 25.8336C11.6992 25.8336 14.1664 28.3008 14.1664 31.3336C14.1664 34.3664 11.6992 36.8336 8.66641 36.8336Z" fill="#F6A51A"/>
<path d="M36.6024 26.2086C35.9884 26.2086 35.729 26.5859 35.0509 27.2641C34.2637 28.0513 32.9165 27.4898 32.9165 26.3805V18.1719C32.9165 17.6187 33.2798 17.1313 33.8103 16.9734C37.4548 15.8891 40.0001 12.4727 40.0001 8.66641C40.0001 3.8875 36.1126 0 31.3337 0C26.5548 0 22.6665 3.8875 22.6665 8.66641C22.6665 12.4727 25.2118 15.8891 28.8563 16.9734C29.3868 17.1313 29.7501 17.6187 29.7501 18.1719V26.3805C29.7501 27.4895 28.4022 28.0516 27.6165 27.2641C26.9299 26.5774 26.6782 26.2102 26.0688 26.2102C24.8749 26.2102 24.3987 27.5947 25.1587 28.3547L31.3337 34.5289L37.5079 28.3547C38.2783 27.5842 37.7699 26.2086 36.6024 26.2086ZM25.8337 8.66641C25.8337 5.63359 28.3009 3.16641 31.3337 3.16641C34.3665 3.16641 36.8337 5.63359 36.8337 8.66641C36.8337 11.6992 34.3665 14.1664 31.3337 14.1664C28.3009 14.1664 25.8337 11.6992 25.8337 8.66641Z" fill="#F6A51A"/>
</g>
<defs>
<clipPath id="clip0">
<rect width="40" height="40" fill="white"/>
</clipPath>
</defs>
</svg>
