<svg width="40" height="40" viewBox="0 0 40 40" fill="none" xmlns="http://www.w3.org/2000/svg">
<path fill-rule="evenodd" clip-rule="evenodd" d="M8.33325 6.66659H31.6666C32.1086 6.66659 32.5325 6.84218 32.8451 7.15474C33.1577 7.4673 33.3333 7.89123 33.3333 8.33325V31.6666C33.3333 32.1086 33.1577 32.5325 32.8451 32.8451C32.5325 33.1577 32.1086 33.3333 31.6666 33.3333H8.33325C7.89122 33.3333 7.4673 33.1577 7.15474 32.8451C6.84218 32.5325 6.66659 32.1086 6.66659 31.6666V8.33325C6.66659 7.89123 6.84218 7.4673 7.15474 7.15474C7.4673 6.84218 7.89122 6.66659 8.33325 6.66659ZM3.33325 8.33325C3.33325 7.00717 3.86004 5.7354 4.79772 4.79772C5.7354 3.86004 7.00717 3.33325 8.33325 3.33325H31.6666C32.9927 3.33325 34.2644 3.86004 35.2021 4.79772C36.1398 5.7354 36.6666 7.00717 36.6666 8.33325V31.6666C36.6666 32.9927 36.1398 34.2644 35.2021 35.2021C34.2644 36.1398 32.9927 36.6666 31.6666 36.6666H8.33325C7.00717 36.6666 5.7354 36.1398 4.79772 35.2021C3.86004 34.2644 3.33325 32.9927 3.33325 31.6666V8.33325ZM19.9999 19.9999C15.3983 19.9999 11.6666 15.5233 11.6666 9.99992H14.9999C14.9999 14.2766 17.7833 16.6666 19.9999 16.6666C22.2166 16.6666 24.9999 14.2766 24.9999 9.99992H28.3333C28.3333 15.5233 24.6016 19.9999 19.9999 19.9999Z" fill="#F6A51A"/>
</svg>
