<svg width="54" height="54" viewBox="0 0 54 54" fill="none" xmlns="http://www.w3.org/2000/svg">
<rect width="54" height="54" fill="#FEFEFE"/>
<path d="M27.0001 23.8758C25.2798 23.8758 23.8759 25.2797 23.8759 27C23.8759 28.7203 25.2798 30.1242 27.0001 30.1242C28.7204 30.1242 30.1243 28.7203 30.1243 27C30.1243 25.2797 28.7204 23.8758 27.0001 23.8758ZM36.3704 27C36.3704 25.7063 36.3821 24.4242 36.3095 23.1328C36.2368 21.6328 35.8946 20.3016 34.7978 19.2047C33.6985 18.1055 32.3696 17.7656 30.8696 17.693C29.5759 17.6203 28.2939 17.632 27.0025 17.632C25.7087 17.632 24.4267 17.6203 23.1353 17.693C21.6353 17.7656 20.304 18.1078 19.2071 19.2047C18.1079 20.3039 17.7681 21.6328 17.6954 23.1328C17.6228 24.4266 17.6345 25.7086 17.6345 27C17.6345 28.2914 17.6228 29.5758 17.6954 30.8672C17.7681 32.3672 18.1103 33.6985 19.2071 34.7953C20.3064 35.8945 21.6353 36.2344 23.1353 36.307C24.429 36.3797 25.711 36.368 27.0025 36.368C28.2962 36.368 29.5782 36.3797 30.8696 36.307C32.3696 36.2344 33.7009 35.8922 34.7978 34.7953C35.897 33.6961 36.2368 32.3672 36.3095 30.8672C36.3845 29.5758 36.3704 28.2938 36.3704 27ZM27.0001 31.807C24.34 31.807 22.1931 29.6602 22.1931 27C22.1931 24.3399 24.34 22.193 27.0001 22.193C29.6603 22.193 31.8071 24.3399 31.8071 27C31.8071 29.6602 29.6603 31.807 27.0001 31.807ZM32.004 23.1188C31.3829 23.1188 30.8814 22.6172 30.8814 21.9961C30.8814 21.375 31.3829 20.8735 32.004 20.8735C32.6251 20.8735 33.1267 21.375 33.1267 21.9961C33.1269 22.1436 33.0979 22.2897 33.0416 22.4259C32.9852 22.5622 32.9026 22.6861 32.7983 22.7904C32.694 22.8946 32.5701 22.9773 32.4339 23.0337C32.2976 23.09 32.1515 23.1189 32.004 23.1188Z" fill="#F6A51A"/>
</svg>
