<svg width="40" height="40" viewBox="0 0 40 40" fill="none" xmlns="http://www.w3.org/2000/svg">
<path d="M12.6953 17.8497C13.6487 16.8964 14.7562 16.1526 15.9613 15.6409C14.6848 14.5181 13.8773 12.8745 13.8773 11.0449C13.8773 7.66846 16.6238 4.92188 20 4.92188C23.3762 4.92188 26.1227 7.66846 26.1227 11.0446C26.1227 12.876 25.3137 14.5206 24.0356 15.6436C26.4951 16.6879 28.4872 18.6615 29.5331 21.1673C31.5237 18.9197 32.7344 15.9659 32.7344 12.7344C32.7344 5.71259 27.0218 0 20 0C12.9782 0 7.26562 5.71259 7.26562 12.7344C7.26562 15.9662 8.47656 18.9203 10.4675 21.1682C10.9818 19.9371 11.7328 18.8123 12.6953 17.8497Z" fill="#F6A51A"/>
<path d="M12.3374 22.8985C14.4712 24.511 17.1256 25.4687 20.0001 25.4687C22.8742 25.4687 25.5286 24.511 27.6621 22.8988C26.6779 19.5349 23.5746 17.1676 20.0001 17.1676C17.8669 17.1676 15.8613 17.9986 14.3525 19.5071C13.3973 20.4623 12.7106 21.6229 12.3374 22.8985Z" fill="#F6A51A"/>
<path d="M23.7789 11.0446C23.7789 8.96088 22.0837 7.26562 19.9999 7.26562C17.9162 7.26562 16.2209 8.96088 16.2209 11.0446C16.2209 13.1287 17.9162 14.8239 19.9999 14.8239C22.0837 14.8239 23.7789 13.1287 23.7789 11.0446Z" fill="#F6A51A"/>
<path d="M32.0703 28.6719H40V40H32.0703V28.6719Z" fill="#F6A51A"/>
<path d="M0 40H29.7266V28.6719H0V40ZM22.3828 33.1641H24.7266V35.5078H22.3828V33.1641ZM18.0469 33.1641H20.3906V35.5078H18.0469V33.1641ZM13.7109 33.1641H16.0547V35.5078H13.7109V33.1641ZM9.375 33.1641H11.7188V35.5078H9.375V33.1641ZM5.03906 33.1641H7.38281V35.5078H5.03906V33.1641Z" fill="#F6A51A"/>
</svg>
