<svg width="22" height="40" viewBox="0 0 22 40" fill="none" xmlns="http://www.w3.org/2000/svg">
<g clip-path="url(#clip0)">
<path d="M3.95833 0H17.7604C19.9479 0 21.7188 1.77083 21.7188 3.95833V36.0417C21.7188 38.2292 19.9479 40 17.7604 40H3.95833C1.77083 40 0 38.2292 0 36.0417V3.95833C0 1.77083 1.77083 0 3.95833 0ZM2.55208 32.1354H19.1667V7.5H2.55208V32.1354ZM10.8333 37.6042C12.0833 37.6042 13.0208 36.6667 13.0208 35.4688C13.0208 34.2188 12.0833 33.2812 10.8333 33.2812C9.63542 33.2812 8.69792 34.2188 8.69792 35.4688C8.69792 36.6667 9.63542 37.6042 10.8333 37.6042Z" fill="white"/>
</g>
<defs>
<clipPath id="clip0">
<rect width="21.7188" height="40" fill="white"/>
</clipPath>
</defs>
</svg>
