<svg width="40" height="40" viewBox="0 0 40 40" fill="none" xmlns="http://www.w3.org/2000/svg">
<path d="M11.875 5H10.625V1.25C10.625 0.904375 10.905 0.625 11.25 0.625H15V1.875H11.875V5Z" fill="#F6A51A"/>
<path d="M29.375 5H28.125V1.875H25V0.625H28.75C29.095 0.625 29.375 0.904375 29.375 1.25V5Z" fill="#F6A51A"/>
<path d="M26.875 3.125H20V5H24.375C24.72 5 25 5.27938 25 5.625V7.5H23.75V6.25H20V6.875C20 7.22062 19.72 7.5 19.375 7.5H17.5V6.25H18.75V3.125H13.125V16.875H26.875V3.125ZM23.125 10V11.25H20.625V13.75H19.375V10.625C19.375 10.2794 19.655 10 20 10H23.125ZM18.75 8.125H20V9.375H18.75V8.125ZM16.25 4.375H17.5V5.625H16.25V4.375ZM14.375 4.375H15.625V5.625H14.375V4.375ZM14.375 8.75C14.375 8.40438 14.655 8.125 15 8.125H15.625V7.5H14.375V6.25H16.25C16.595 6.25 16.875 6.52938 16.875 6.875V8.125H18.125V9.375H15.625V11.875H14.375V8.75ZM15.625 15.625H14.375V14.375H15.625V15.625ZM17.5 15.625H16.25V13.75H14.375V12.5H16.875C17.22 12.5 17.5 12.7794 17.5 13.125V15.625ZM16.25 11.25V10H17.5V11.25H18.75V12.5H17.5V11.25H16.25ZM22.5 15C22.5 15.3456 22.22 15.625 21.875 15.625H18.125V14.375H21.25V11.875H22.5V15ZM25.625 15C25.625 15.3456 25.345 15.625 25 15.625H23.125V14.375H24.375V11.875H25.625V15ZM25.625 10.625H24.375V9.375H23.125V8.125H21.875V9.375H20.625V8.125H21.875V6.875H23.125V8.125H25C25.345 8.125 25.625 8.40438 25.625 8.75V10.625Z" fill="#F6A51A"/>
<path d="M11.25 20.6987L2.64746 24.9999L11.25 29.3012L19.8525 24.9999L11.25 20.6987Z" fill="#F6A51A"/>
<path d="M1.875 33.3637L10.625 37.7387V30.3862L1.875 26.0112V33.3637Z" fill="#F6A51A"/>
<path d="M28.75 20.6987L21.3975 24.3749L21.5293 24.4405C21.7412 24.5468 21.875 24.763 21.875 24.9999V25.8637L28.75 29.3012L37.3525 24.9999L28.75 20.6987Z" fill="#F6A51A"/>
<path d="M11.875 37.7387L20.625 33.3637V26.0112L11.875 30.3862V37.7387Z" fill="#F6A51A"/>
<path d="M29.375 30.3862V37.7387L38.125 33.3637V26.0112L29.375 30.3862Z" fill="#F6A51A"/>
<path d="M21.875 33.7499C21.875 33.9868 21.7412 34.203 21.5293 34.3093L21.3975 34.3749L28.125 37.7387V30.3862L21.875 27.2612V33.7499Z" fill="#F6A51A"/>
<path d="M25 19.375H28.75C29.095 19.375 29.375 19.0956 29.375 18.75V15H28.125V18.125H25V19.375Z" fill="#F6A51A"/>
<path d="M15 19.375H11.25C10.905 19.375 10.625 19.0956 10.625 18.75V15H11.875V18.125H15V19.375Z" fill="#F6A51A"/>
</svg>
