<svg width="40" height="40" viewBox="0 0 40 40" fill="none" xmlns="http://www.w3.org/2000/svg">
<g clip-path="url(#clip0)">
<path d="M25.2733 15.0746C25.0151 14.8165 24.6553 14.6685 24.2859 14.6685C23.9114 14.6685 23.5609 14.8126 23.2987 15.0746L18.4098 19.9634L16.7215 18.2749C16.4579 18.0121 16.1076 17.8673 15.7352 17.8673C15.3625 17.8673 15.012 18.0123 14.748 18.276C14.4842 18.5399 14.3389 18.8907 14.3389 19.2636C14.3389 19.6369 14.4843 19.9876 14.7479 20.2511L17.4233 22.9268C17.6849 23.1878 18.0352 23.3314 18.4096 23.3314C18.4097 23.3314 18.4097 23.3314 18.4097 23.3314C18.7843 23.3314 19.1345 23.1876 19.3973 22.9258L25.2735 17.0496C25.8178 16.5054 25.8179 15.6196 25.2733 15.0746Z" fill="#F6A51A"/>
<path d="M36.3029 8.24363C36.2808 7.98925 36.1267 7.76515 35.8971 7.65354L20.3177 0.0731688C20.1171 -0.024471 19.8827 -0.024471 19.6822 0.0731688L4.10287 7.65343C3.8733 7.76515 3.71913 7.98914 3.69712 8.24351C3.67724 8.47208 3.23048 13.9187 4.95158 20.571C5.9654 24.4897 7.52652 28.0051 9.59148 31.0195C12.1814 34.8001 15.5707 37.7942 19.6657 39.9184C19.7705 39.9728 19.8853 40 20.0001 40C20.1148 40 20.2296 39.9728 20.3344 39.9184C24.4293 37.7942 27.8188 34.8002 30.4087 31.0195C32.4737 28.0051 34.0348 24.4897 35.0485 20.571C36.7695 13.9187 36.3228 8.4722 36.3029 8.24363ZM19.9999 28.119C14.907 28.119 10.7637 23.9757 10.7637 18.8828C10.7637 13.7899 14.907 9.64655 19.9999 9.64655C25.0928 9.64655 29.2362 13.7899 29.2362 18.8828C29.2362 23.9757 25.0928 28.119 19.9999 28.119Z" fill="#F6A51A"/>
</g>
<defs>
<clipPath id="clip0">
<rect width="40" height="40" fill="white"/>
</clipPath>
</defs>
</svg>
