<svg width="54" height="54" viewBox="0 0 54 54" fill="none" xmlns="http://www.w3.org/2000/svg">
<rect width="54" height="54" fill="#FEFEFE"/>
<path d="M34.633 22.997C34.646 23.172 34.646 23.346 34.646 23.52C34.646 28.845 30.593 34.981 23.186 34.981C20.904 34.981 18.784 34.32 17 33.172C17.324 33.209 17.636 33.222 17.973 33.222C19.786 33.2264 21.5476 32.6202 22.974 31.501C22.1334 31.4858 21.3186 31.2085 20.6432 30.7078C19.9679 30.2071 19.4658 29.5079 19.207 28.708C19.456 28.745 19.706 28.77 19.968 28.77C20.329 28.77 20.692 28.72 21.029 28.633C20.1168 28.4489 19.2965 27.9544 18.7076 27.2337C18.1188 26.5131 17.7977 25.6107 17.799 24.68V24.63C18.336 24.929 18.959 25.116 19.619 25.141C19.0661 24.7736 18.6127 24.2751 18.2993 23.6898C17.986 23.1046 17.8223 22.4509 17.823 21.787C17.823 21.039 18.022 20.353 18.371 19.755C19.3831 21.0001 20.6455 22.0186 22.0763 22.7447C23.5072 23.4708 25.0746 23.8883 26.677 23.97C26.615 23.67 26.577 23.359 26.577 23.047C26.5767 22.518 26.6807 21.9941 26.8831 21.5053C27.0854 21.0165 27.3821 20.5723 27.7562 20.1982C28.1303 19.8241 28.5744 19.5275 29.0632 19.3251C29.5521 19.1228 30.076 19.0188 30.605 19.019C31.765 19.019 32.812 19.505 33.548 20.291C34.4498 20.1167 35.3145 19.7875 36.104 19.318C35.8034 20.2489 35.1738 21.0381 34.333 21.538C35.1328 21.4468 35.9144 21.2365 36.652 20.914C36.1011 21.7171 35.4185 22.4214 34.633 22.997Z" fill="#F6A51A"/>
</svg>
