<svg width="40" height="40" viewBox="0 0 40 40" fill="none" xmlns="http://www.w3.org/2000/svg">
<g clip-path="url(#clip0)">
<path d="M1.2508 -6.98494e-05C0.894388 0.0677185 0.573395 0.259287 0.344528 0.540796C0.115661 0.822306 -0.00635456 1.17564 3.46601e-05 1.53839V6.15378C3.46601e-05 6.5618 0.162122 6.95311 0.45064 7.24163C0.739157 7.53015 1.13047 7.69224 1.5385 7.69224C1.94652 7.69224 2.33784 7.53015 2.62635 7.24163C2.91487 6.95311 3.07696 6.5618 3.07696 6.15378V3.07685H6.15388C6.56191 3.07685 6.95322 2.91477 7.24174 2.62625C7.53025 2.33773 7.69234 1.94642 7.69234 1.53839C7.69234 1.13037 7.53025 0.739053 7.24174 0.450535C6.95322 0.162018 6.56191 -6.98494e-05 6.15388 -6.98494e-05H1.5385C1.49032 -0.00233674 1.44206 -0.00233674 1.39388 -6.98494e-05C1.3457 -0.00233674 1.29744 -0.00233674 1.24927 -6.98494e-05H1.2508ZM33.4139 -6.98494e-05C33.0059 0.0572577 32.6373 0.274325 32.3893 0.603379C32.1414 0.932433 32.0342 1.34652 32.0916 1.75455C32.1489 2.16257 32.366 2.53111 32.695 2.77909C33.0241 3.02707 33.4382 3.13418 33.8462 3.07685H36.9231V6.15378C36.9231 6.5618 37.0852 6.95311 37.3737 7.24163C37.6622 7.53015 38.0536 7.69224 38.4616 7.69224C38.8696 7.69224 39.2609 7.53015 39.5494 7.24163C39.8379 6.95311 40 6.5618 40 6.15378V1.53839C40 1.13037 39.8379 0.739053 39.5494 0.450535C39.2609 0.162018 38.8696 -6.98494e-05 38.4616 -6.98494e-05H33.8462C33.798 -0.00233674 33.7498 -0.00233674 33.7016 -6.98494e-05C33.6539 -0.00228652 33.6062 -0.00228652 33.5585 -6.98494e-05C33.5103 -0.0023277 33.4621 -0.0023277 33.4139 -6.98494e-05ZM20 1.53839C7.38619 1.53839 5.92311 13.8584 6.20157 19.7122C5.2508 20.3907 4.61542 21.4907 4.61542 23.0769H1.5385C1.49032 23.0746 1.44206 23.0746 1.39388 23.0769C1.3457 23.0746 1.29744 23.0746 1.24927 23.0769C0.84124 23.1152 0.465163 23.3141 0.203766 23.6297C-0.0576312 23.9454 -0.182935 24.3519 -0.144581 24.7599C-0.106226 25.168 0.0926446 25.544 0.408283 25.8054C0.723921 26.0668 1.13047 26.1921 1.5385 26.1538H38.4616C38.8696 26.1538 39.2609 25.9917 39.5494 25.7032C39.8379 25.4147 40 25.0233 40 24.6153C40 24.2073 39.8379 23.816 39.5494 23.5275C39.2609 23.2389 38.8696 23.0769 38.4616 23.0769H35.3847C35.3847 21.5661 34.8062 20.3907 33.7985 19.663C34.0647 13.7907 32.5785 1.53839 20 1.53839ZM15.3847 12.3076C15.3847 17.1692 29.2308 15.1184 29.2308 18.4615V22.1153L30.9616 21.923C30.9847 21.9215 31.0231 21.923 31.1062 21.923C32.1985 21.923 32.3077 22.4522 32.3077 23.0769H27.5477C27.6308 22.8399 27.6923 22.5738 27.6923 22.3076C27.6923 21.6956 27.4492 21.1086 27.0164 20.6758C26.5837 20.2431 25.9967 19.9999 25.3847 19.9999C24.7726 19.9999 24.1856 20.2431 23.7529 20.6758C23.3201 21.1086 23.077 21.6956 23.077 22.3076C23.077 22.5738 23.1385 22.8399 23.2216 23.0769H16.7785C16.8616 22.8399 16.9231 22.5738 16.9231 22.3076C16.9231 21.6956 16.68 21.1086 16.2472 20.6758C15.8144 20.2431 15.2275 19.9999 14.6154 19.9999C14.0034 19.9999 13.4164 20.2431 12.9836 20.6758C12.5509 21.1086 12.3077 21.6956 12.3077 22.3076C12.3077 22.5738 12.3693 22.8399 12.4523 23.0769H7.69234C7.69234 22.6538 7.69696 21.923 9.08619 21.923L10.7693 22.1153V18.4615C10.7693 14.2722 13.5754 16.7461 15.3847 12.3076ZM7.88465 27.6922C10.8693 34.8292 14.9523 38.4615 20 38.4615C25.0493 38.4615 29.1323 34.8307 32.1154 27.6922H28.7493C26.38 32.7922 23.4354 35.3845 20 35.3845C16.5647 35.3845 13.6216 32.7922 11.2493 27.6922H7.88619H7.88465ZM1.39388 32.2599C1.32882 32.2717 1.26458 32.2876 1.20157 32.3076C0.85424 32.3855 0.544648 32.5813 0.325553 32.8619C0.106458 33.1424 -0.00858268 33.4902 3.46601e-05 33.8461V38.4615C3.46601e-05 38.8695 0.162122 39.2608 0.45064 39.5493C0.739157 39.8378 1.13047 39.9999 1.5385 39.9999H6.15388C6.56191 39.9999 6.95322 39.8378 7.24174 39.5493C7.53025 39.2608 7.69234 38.8695 7.69234 38.4615C7.69234 38.0534 7.53025 37.6621 7.24174 37.3736C6.95322 37.0851 6.56191 36.923 6.15388 36.923H3.07696V33.8461C3.08473 33.6273 3.04572 33.4094 2.96254 33.2069C2.87936 33.0044 2.75392 32.822 2.59461 32.6719C2.43529 32.5217 2.24578 32.4073 2.03871 32.3363C1.83165 32.2652 1.61181 32.2392 1.39388 32.2599ZM38.317 32.2599C38.2519 32.2717 38.1877 32.2876 38.1247 32.3076C37.7773 32.3855 37.4677 32.5813 37.2486 32.8619C37.0295 33.1424 36.9145 33.4902 36.9231 33.8461V36.923H33.8462C33.4382 36.923 33.0468 37.0851 32.7583 37.3736C32.4698 37.6621 32.3077 38.0534 32.3077 38.4615C32.3077 38.8695 32.4698 39.2608 32.7583 39.5493C33.0468 39.8378 33.4382 39.9999 33.8462 39.9999H38.4616C38.8696 39.9999 39.2609 39.8378 39.5494 39.5493C39.8379 39.2608 40 38.8695 40 38.4615V33.8461C40.0078 33.6273 39.9688 33.4094 39.8856 33.2069C39.8024 33.0044 39.677 32.822 39.5177 32.6719C39.3584 32.5217 39.1689 32.4073 38.9618 32.3363C38.7547 32.2652 38.5349 32.2392 38.317 32.2599Z" fill="#F6A51A"/>
</g>
<defs>
<clipPath id="clip0">
<rect width="40" height="40" fill="white"/>
</clipPath>
</defs>
</svg>
