<svg width="54" height="54" viewBox="0 0 54 54" fill="none" xmlns="http://www.w3.org/2000/svg">
<rect width="54" height="54" fill="#FEFEFE"/>
<path d="M37.0617 21.9398C36.9422 21.4946 36.7078 21.0886 36.382 20.7624C36.0563 20.4363 35.6505 20.2014 35.2055 20.0813C33.5672 19.6406 27 19.6406 27 19.6406C27 19.6406 20.4328 19.6406 18.7945 20.0789C18.3493 20.1986 17.9433 20.4334 17.6175 20.7596C17.2917 21.0859 17.0574 21.4921 16.9383 21.9375C16.5 23.5781 16.5 27 16.5 27C16.5 27 16.5 30.4219 16.9383 32.0602C17.1797 32.9648 17.8922 33.6773 18.7945 33.9188C20.4328 34.3594 27 34.3594 27 34.3594C27 34.3594 33.5672 34.3594 35.2055 33.9188C36.1102 33.6773 36.8203 32.9648 37.0617 32.0602C37.5 30.4219 37.5 27 37.5 27C37.5 27 37.5 23.5781 37.0617 21.9398ZM24.9141 30.1406V23.8594L30.3516 26.9766L24.9141 30.1406Z" fill="#F6A51A"/>
</svg>
